<svg xmlns="http://www.w3.org/2000/svg" width="1280" height="720" viewBox="0 0 1280 720" role="img" aria-label="CookieScope orange and white cybersecurity dashboard preview"><defs><linearGradient id="bg" x1="0" y1="0" x2="1" y2="1"><stop stop-color="#15110f"/><stop offset="1" stop-color="#2a1710"/></linearGradient><filter id="glow"><feGaussianBlur stdDeviation="8" result="b"/><feMerge><feMergeNode in="b"/><feMergeNode in="SourceGraphic"/></feMerge></filter></defs><rect width="1280" height="720" fill="url(#bg)"/><path d="M0 120h1280M0 240h1280M0 360h1280M0 480h1280M0 600h1280M160 0v720M320 0v720M480 0v720M640 0v720M800 0v720M960 0v720M1120 0v720" stroke="#ff8a3d" opacity=".1"/><rect x="62" y="48" width="1156" height="624" rx="18" fill="#211a16" stroke="#69422e"/><circle cx="99" cy="84" r="7" fill="#ff8a3d" filter="url(#glow)"/><text x="122" y="92" fill="#fffaf4" font-family="Arial,sans-serif" font-size="22" font-weight="700">CookieScope</text><text x="1010" y="90" fill="#ffb276" font-family="monospace" font-size="12">LOCAL-FIRST / READY</text><text x="104" y="177" fill="#ff8a3d" font-family="monospace" font-size="15" letter-spacing="4">COOKIE INTELLIGENCE / 01</text><text x="100" y="260" fill="#fffaf4" font-family="Arial,sans-serif" font-size="78" font-weight="700">Know what your</text><text x="100" y="342" fill="#ff8a3d" font-family="Arial,sans-serif" font-size="78" font-weight="700">cookies know.</text><rect x="100" y="405" width="510" height="92" rx="8" fill="#191310" stroke="#76513e"/><text x="126" y="442" fill="#9d7962" font-family="monospace" font-size="12">AUTHORIZED SNAPSHOT · AFTER SIGN-IN</text><text x="126" y="475" fill="#fffaf4" font-family="monospace" font-size="15">session_id=••••••••; theme=••••••</text><rect x="650" y="405" width="445" height="188" rx="8" fill="#191310" stroke="#76513e"/><text x="681" y="438" fill="#b9b1aa" font-family="monospace" font-size="12">RISK SCORE</text><text x="681" y="510" fill="#ff8a3d" font-family="monospace" font-size="66" font-weight="700">44</text><text x="790" y="501" fill="#ffb276" font-family="monospace" font-size="14">REVIEW NEEDED</text><rect x="681" y="536" width="350" height="7" rx="4" fill="#49362b"/><rect x="681" y="536" width="154" height="7" rx="4" fill="#ff8a3d"/><text x="100" y="620" fill="#8c7568" font-family="monospace" font-size="12">MASKED PREVIEW  /  PASSWORDS NEVER REQUIRED  /  AUTHORIZED AUDITS ONLY</text></svg>
